<mxfile host="app.diagrams.net" modified="2024-01-01T20:19:20.809Z" agent="Mozilla/5.0 (Windows NT 10.0; Win64; x64; rv:121.0) Gecko/20100101 Firefox/121.0" etag="6I0wegu0v4vNaCgi1fOX" version="22.1.16" type="github">
  <diagram name="Seite-1" id="NgwSmQi8EFkBgkwMMpHe">
    <mxGraphModel dx="1687" dy="911" grid="1" gridSize="10" guides="1" tooltips="1" connect="1" arrows="1" fold="1" page="1" pageScale="1" pageWidth="2336" pageHeight="1654" math="0" shadow="0">
      <root>
        <mxCell id="0" />
        <mxCell id="1" parent="0" />
        <mxCell id="ugMAEvGEVpi-_gipkM1e-5" value="mArrangement: Arrangement" style="swimlane;fontStyle=1;align=center;verticalAlign=middle;childLayout=stackLayout;horizontal=1;startSize=29;horizontalStack=0;resizeParent=1;resizeParentMax=0;resizeLast=0;collapsible=0;marginBottom=0;html=1;whiteSpace=wrap;" vertex="1" parent="1">
          <mxGeometry x="540" y="290" width="240" height="54" as="geometry" />
        </mxCell>
        <mxCell id="ugMAEvGEVpi-_gipkM1e-6" value="mConnected = true" style="text;html=1;strokeColor=none;fillColor=none;align=center;verticalAlign=middle;spacingLeft=4;spacingRight=4;overflow=hidden;rotatable=0;points=[[0,0.5],[1,0.5]];portConstraint=eastwest;whiteSpace=wrap;" vertex="1" parent="ugMAEvGEVpi-_gipkM1e-5">
          <mxGeometry y="29" width="240" height="25" as="geometry" />
        </mxCell>
        <mxCell id="ugMAEvGEVpi-_gipkM1e-8" value="theGraph: Graph" style="swimlane;fontStyle=1;align=center;verticalAlign=middle;childLayout=stackLayout;horizontal=1;startSize=29;horizontalStack=0;resizeParent=1;resizeParentMax=0;resizeLast=0;collapsible=0;marginBottom=0;html=1;whiteSpace=wrap;" vertex="1" parent="1">
          <mxGeometry x="540" y="472.5" width="240" height="54" as="geometry" />
        </mxCell>
        <mxCell id="ugMAEvGEVpi-_gipkM1e-9" value="mConnected = true" style="text;html=1;strokeColor=none;fillColor=none;align=center;verticalAlign=middle;spacingLeft=4;spacingRight=4;overflow=hidden;rotatable=0;points=[[0,0.5],[1,0.5]];portConstraint=eastwest;whiteSpace=wrap;" vertex="1" parent="ugMAEvGEVpi-_gipkM1e-8">
          <mxGeometry y="29" width="240" height="25" as="geometry" />
        </mxCell>
        <mxCell id="ugMAEvGEVpi-_gipkM1e-11" value="node[1]: Node" style="swimlane;fontStyle=1;align=center;verticalAlign=middle;childLayout=stackLayout;horizontal=1;startSize=29;horizontalStack=0;resizeParent=1;resizeParentMax=0;resizeLast=0;collapsible=0;marginBottom=0;html=1;whiteSpace=wrap;" vertex="1" parent="1">
          <mxGeometry x="910" y="170" width="240" height="70" as="geometry" />
        </mxCell>
        <mxCell id="ugMAEvGEVpi-_gipkM1e-12" value="&lt;div&gt;mStatus = VISITED&lt;/div&gt;&lt;div&gt;mDistance = &lt;br&gt;&lt;/div&gt;" style="text;html=1;strokeColor=none;fillColor=none;align=center;verticalAlign=middle;spacingLeft=4;spacingRight=4;overflow=hidden;rotatable=0;points=[[0,0.5],[1,0.5]];portConstraint=eastwest;whiteSpace=wrap;" vertex="1" parent="ugMAEvGEVpi-_gipkM1e-11">
          <mxGeometry y="29" width="240" height="41" as="geometry" />
        </mxCell>
        <mxCell id="ugMAEvGEVpi-_gipkM1e-13" value="node[2]: Node" style="swimlane;fontStyle=1;align=center;verticalAlign=middle;childLayout=stackLayout;horizontal=1;startSize=29;horizontalStack=0;resizeParent=1;resizeParentMax=0;resizeLast=0;collapsible=0;marginBottom=0;html=1;whiteSpace=wrap;" vertex="1" parent="1">
          <mxGeometry x="910" y="240" width="240" height="70" as="geometry" />
        </mxCell>
        <mxCell id="ugMAEvGEVpi-_gipkM1e-14" value="&lt;div&gt;mStatus = VISITED&lt;/div&gt;&lt;div&gt;mDistance = &lt;br&gt;&lt;/div&gt;" style="text;html=1;strokeColor=none;fillColor=none;align=center;verticalAlign=middle;spacingLeft=4;spacingRight=4;overflow=hidden;rotatable=0;points=[[0,0.5],[1,0.5]];portConstraint=eastwest;whiteSpace=wrap;" vertex="1" parent="ugMAEvGEVpi-_gipkM1e-13">
          <mxGeometry y="29" width="240" height="41" as="geometry" />
        </mxCell>
        <mxCell id="ugMAEvGEVpi-_gipkM1e-15" value="node[3]: Node" style="swimlane;fontStyle=1;align=center;verticalAlign=middle;childLayout=stackLayout;horizontal=1;startSize=29;horizontalStack=0;resizeParent=1;resizeParentMax=0;resizeLast=0;collapsible=0;marginBottom=0;html=1;whiteSpace=wrap;" vertex="1" parent="1">
          <mxGeometry x="910" y="310" width="240" height="70" as="geometry" />
        </mxCell>
        <mxCell id="ugMAEvGEVpi-_gipkM1e-16" value="&lt;div&gt;mStatus = VISITED&lt;/div&gt;&lt;div&gt;mDistance = &lt;br&gt;&lt;/div&gt;" style="text;html=1;strokeColor=none;fillColor=none;align=center;verticalAlign=middle;spacingLeft=4;spacingRight=4;overflow=hidden;rotatable=0;points=[[0,0.5],[1,0.5]];portConstraint=eastwest;whiteSpace=wrap;" vertex="1" parent="ugMAEvGEVpi-_gipkM1e-15">
          <mxGeometry y="29" width="240" height="41" as="geometry" />
        </mxCell>
        <mxCell id="ugMAEvGEVpi-_gipkM1e-17" value="node[4]: Node" style="swimlane;fontStyle=1;align=center;verticalAlign=middle;childLayout=stackLayout;horizontal=1;startSize=29;horizontalStack=0;resizeParent=1;resizeParentMax=0;resizeLast=0;collapsible=0;marginBottom=0;html=1;whiteSpace=wrap;" vertex="1" parent="1">
          <mxGeometry x="910" y="380" width="240" height="70" as="geometry" />
        </mxCell>
        <mxCell id="ugMAEvGEVpi-_gipkM1e-18" value="&lt;div&gt;mStatus = VISITED&lt;/div&gt;&lt;div&gt;mDistance = &lt;br&gt;&lt;/div&gt;" style="text;html=1;strokeColor=none;fillColor=none;align=center;verticalAlign=middle;spacingLeft=4;spacingRight=4;overflow=hidden;rotatable=0;points=[[0,0.5],[1,0.5]];portConstraint=eastwest;whiteSpace=wrap;" vertex="1" parent="ugMAEvGEVpi-_gipkM1e-17">
          <mxGeometry y="29" width="240" height="41" as="geometry" />
        </mxCell>
        <mxCell id="ugMAEvGEVpi-_gipkM1e-19" value="node[5]: Node" style="swimlane;fontStyle=1;align=center;verticalAlign=middle;childLayout=stackLayout;horizontal=1;startSize=29;horizontalStack=0;resizeParent=1;resizeParentMax=0;resizeLast=0;collapsible=0;marginBottom=0;html=1;whiteSpace=wrap;" vertex="1" parent="1">
          <mxGeometry x="910" y="450" width="240" height="70" as="geometry" />
        </mxCell>
        <mxCell id="ugMAEvGEVpi-_gipkM1e-63" style="edgeStyle=orthogonalEdgeStyle;rounded=0;orthogonalLoop=1;jettySize=auto;html=1;exitX=1;exitY=0.5;exitDx=0;exitDy=0;" edge="1" parent="ugMAEvGEVpi-_gipkM1e-19" source="ugMAEvGEVpi-_gipkM1e-20">
          <mxGeometry relative="1" as="geometry">
            <mxPoint x="330" y="50" as="targetPoint" />
          </mxGeometry>
        </mxCell>
        <mxCell id="ugMAEvGEVpi-_gipkM1e-20" value="&lt;div&gt;mStatus = VISITED&lt;/div&gt;&lt;div&gt;mDistance = &lt;br&gt;&lt;/div&gt;" style="text;html=1;strokeColor=none;fillColor=none;align=center;verticalAlign=middle;spacingLeft=4;spacingRight=4;overflow=hidden;rotatable=0;points=[[0,0.5],[1,0.5]];portConstraint=eastwest;whiteSpace=wrap;" vertex="1" parent="ugMAEvGEVpi-_gipkM1e-19">
          <mxGeometry y="29" width="240" height="41" as="geometry" />
        </mxCell>
        <mxCell id="ugMAEvGEVpi-_gipkM1e-21" value="node[9]: Node" style="swimlane;fontStyle=1;align=center;verticalAlign=middle;childLayout=stackLayout;horizontal=1;startSize=29;horizontalStack=0;resizeParent=1;resizeParentMax=0;resizeLast=0;collapsible=0;marginBottom=0;html=1;whiteSpace=wrap;" vertex="1" parent="1">
          <mxGeometry x="910" y="730" width="240" height="70" as="geometry" />
        </mxCell>
        <mxCell id="ugMAEvGEVpi-_gipkM1e-22" value="&lt;div&gt;mStatus = VISITED&lt;/div&gt;&lt;div&gt;mDistance = &lt;br&gt;&lt;/div&gt;" style="text;html=1;strokeColor=none;fillColor=none;align=center;verticalAlign=middle;spacingLeft=4;spacingRight=4;overflow=hidden;rotatable=0;points=[[0,0.5],[1,0.5]];portConstraint=eastwest;whiteSpace=wrap;" vertex="1" parent="ugMAEvGEVpi-_gipkM1e-21">
          <mxGeometry y="29" width="240" height="41" as="geometry" />
        </mxCell>
        <mxCell id="ugMAEvGEVpi-_gipkM1e-23" value="node[8]: Node" style="swimlane;fontStyle=1;align=center;verticalAlign=middle;childLayout=stackLayout;horizontal=1;startSize=29;horizontalStack=0;resizeParent=1;resizeParentMax=0;resizeLast=0;collapsible=0;marginBottom=0;html=1;whiteSpace=wrap;" vertex="1" parent="1">
          <mxGeometry x="910" y="660" width="240" height="70" as="geometry" />
        </mxCell>
        <mxCell id="ugMAEvGEVpi-_gipkM1e-24" value="&lt;div&gt;mStatus = VISITED&lt;/div&gt;&lt;div&gt;mDistance = &lt;br&gt;&lt;/div&gt;" style="text;html=1;strokeColor=none;fillColor=none;align=center;verticalAlign=middle;spacingLeft=4;spacingRight=4;overflow=hidden;rotatable=0;points=[[0,0.5],[1,0.5]];portConstraint=eastwest;whiteSpace=wrap;" vertex="1" parent="ugMAEvGEVpi-_gipkM1e-23">
          <mxGeometry y="29" width="240" height="41" as="geometry" />
        </mxCell>
        <mxCell id="ugMAEvGEVpi-_gipkM1e-25" value="node[7]: Node" style="swimlane;fontStyle=1;align=center;verticalAlign=middle;childLayout=stackLayout;horizontal=1;startSize=29;horizontalStack=0;resizeParent=1;resizeParentMax=0;resizeLast=0;collapsible=0;marginBottom=0;html=1;whiteSpace=wrap;" vertex="1" parent="1">
          <mxGeometry x="910" y="590" width="240" height="70" as="geometry" />
        </mxCell>
        <mxCell id="ugMAEvGEVpi-_gipkM1e-26" value="&lt;div&gt;mStatus = VISITED&lt;/div&gt;&lt;div&gt;mDistance = &lt;br&gt;&lt;/div&gt;" style="text;html=1;strokeColor=none;fillColor=none;align=center;verticalAlign=middle;spacingLeft=4;spacingRight=4;overflow=hidden;rotatable=0;points=[[0,0.5],[1,0.5]];portConstraint=eastwest;whiteSpace=wrap;" vertex="1" parent="ugMAEvGEVpi-_gipkM1e-25">
          <mxGeometry y="29" width="240" height="41" as="geometry" />
        </mxCell>
        <mxCell id="ugMAEvGEVpi-_gipkM1e-27" value="node[6]: Node" style="swimlane;fontStyle=1;align=center;verticalAlign=middle;childLayout=stackLayout;horizontal=1;startSize=29;horizontalStack=0;resizeParent=1;resizeParentMax=0;resizeLast=0;collapsible=0;marginBottom=0;html=1;whiteSpace=wrap;" vertex="1" parent="1">
          <mxGeometry x="910" y="520" width="240" height="70" as="geometry" />
        </mxCell>
        <mxCell id="ugMAEvGEVpi-_gipkM1e-28" value="&lt;div&gt;mStatus = VISITED&lt;/div&gt;&lt;div&gt;mDistance = &lt;br&gt;&lt;/div&gt;" style="text;html=1;strokeColor=none;fillColor=none;align=center;verticalAlign=middle;spacingLeft=4;spacingRight=4;overflow=hidden;rotatable=0;points=[[0,0.5],[1,0.5]];portConstraint=eastwest;whiteSpace=wrap;" vertex="1" parent="ugMAEvGEVpi-_gipkM1e-27">
          <mxGeometry y="29" width="240" height="41" as="geometry" />
        </mxCell>
        <mxCell id="ugMAEvGEVpi-_gipkM1e-29" value="node[12]: Node" style="swimlane;fontStyle=1;align=center;verticalAlign=middle;childLayout=stackLayout;horizontal=1;startSize=29;horizontalStack=0;resizeParent=1;resizeParentMax=0;resizeLast=0;collapsible=0;marginBottom=0;html=1;whiteSpace=wrap;" vertex="1" parent="1">
          <mxGeometry x="910" y="940" width="240" height="70" as="geometry" />
        </mxCell>
        <mxCell id="ugMAEvGEVpi-_gipkM1e-30" value="&lt;div&gt;mStatus = VISITED&lt;/div&gt;&lt;div&gt;mDistance = &lt;br&gt;&lt;/div&gt;" style="text;html=1;strokeColor=none;fillColor=none;align=center;verticalAlign=middle;spacingLeft=4;spacingRight=4;overflow=hidden;rotatable=0;points=[[0,0.5],[1,0.5]];portConstraint=eastwest;whiteSpace=wrap;" vertex="1" parent="ugMAEvGEVpi-_gipkM1e-29">
          <mxGeometry y="29" width="240" height="41" as="geometry" />
        </mxCell>
        <mxCell id="ugMAEvGEVpi-_gipkM1e-31" value="node[11]: Node" style="swimlane;fontStyle=1;align=center;verticalAlign=middle;childLayout=stackLayout;horizontal=1;startSize=29;horizontalStack=0;resizeParent=1;resizeParentMax=0;resizeLast=0;collapsible=0;marginBottom=0;html=1;whiteSpace=wrap;" vertex="1" parent="1">
          <mxGeometry x="910" y="870" width="240" height="70" as="geometry" />
        </mxCell>
        <mxCell id="ugMAEvGEVpi-_gipkM1e-32" value="&lt;div&gt;mStatus = VISITED&lt;/div&gt;&lt;div&gt;mDistance = &lt;br&gt;&lt;/div&gt;" style="text;html=1;strokeColor=none;fillColor=none;align=center;verticalAlign=middle;spacingLeft=4;spacingRight=4;overflow=hidden;rotatable=0;points=[[0,0.5],[1,0.5]];portConstraint=eastwest;whiteSpace=wrap;" vertex="1" parent="ugMAEvGEVpi-_gipkM1e-31">
          <mxGeometry y="29" width="240" height="41" as="geometry" />
        </mxCell>
        <mxCell id="ugMAEvGEVpi-_gipkM1e-33" value="node[10]: Node" style="swimlane;fontStyle=1;align=center;verticalAlign=middle;childLayout=stackLayout;horizontal=1;startSize=29;horizontalStack=0;resizeParent=1;resizeParentMax=0;resizeLast=0;collapsible=0;marginBottom=0;html=1;whiteSpace=wrap;" vertex="1" parent="1">
          <mxGeometry x="910" y="800" width="240" height="70" as="geometry" />
        </mxCell>
        <mxCell id="ugMAEvGEVpi-_gipkM1e-34" value="&lt;div&gt;mStatus = VISITED&lt;/div&gt;&lt;div&gt;mDistance = &lt;br&gt;&lt;/div&gt;" style="text;html=1;strokeColor=none;fillColor=none;align=center;verticalAlign=middle;spacingLeft=4;spacingRight=4;overflow=hidden;rotatable=0;points=[[0,0.5],[1,0.5]];portConstraint=eastwest;whiteSpace=wrap;" vertex="1" parent="ugMAEvGEVpi-_gipkM1e-33">
          <mxGeometry y="29" width="240" height="41" as="geometry" />
        </mxCell>
        <mxCell id="ugMAEvGEVpi-_gipkM1e-35" value="edge[1]: Edge" style="swimlane;fontStyle=1;align=center;verticalAlign=middle;childLayout=stackLayout;horizontal=1;startSize=29;horizontalStack=0;resizeParent=1;resizeParentMax=0;resizeLast=0;collapsible=0;marginBottom=0;html=1;whiteSpace=wrap;" vertex="1" parent="1">
          <mxGeometry x="1250" y="168" width="240" height="70" as="geometry" />
        </mxCell>
        <mxCell id="ugMAEvGEVpi-_gipkM1e-38" value="edge[2]: Edge" style="swimlane;fontStyle=1;align=center;verticalAlign=middle;childLayout=stackLayout;horizontal=1;startSize=29;horizontalStack=0;resizeParent=1;resizeParentMax=0;resizeLast=0;collapsible=0;marginBottom=0;html=1;whiteSpace=wrap;" vertex="1" parent="1">
          <mxGeometry x="1250" y="238" width="240" height="70" as="geometry" />
        </mxCell>
        <mxCell id="ugMAEvGEVpi-_gipkM1e-39" value="edge[3]: Edge" style="swimlane;fontStyle=1;align=center;verticalAlign=middle;childLayout=stackLayout;horizontal=1;startSize=29;horizontalStack=0;resizeParent=1;resizeParentMax=0;resizeLast=0;collapsible=0;marginBottom=0;html=1;whiteSpace=wrap;" vertex="1" parent="1">
          <mxGeometry x="1250" y="308" width="240" height="70" as="geometry" />
        </mxCell>
        <mxCell id="ugMAEvGEVpi-_gipkM1e-48" value="edge[4]: Edge" style="swimlane;fontStyle=1;align=center;verticalAlign=middle;childLayout=stackLayout;horizontal=1;startSize=29;horizontalStack=0;resizeParent=1;resizeParentMax=0;resizeLast=0;collapsible=0;marginBottom=0;html=1;whiteSpace=wrap;" vertex="1" parent="1">
          <mxGeometry x="1250" y="378" width="240" height="70" as="geometry" />
        </mxCell>
        <mxCell id="ugMAEvGEVpi-_gipkM1e-49" value="edge[5]: Edge" style="swimlane;fontStyle=1;align=center;verticalAlign=middle;childLayout=stackLayout;horizontal=1;startSize=29;horizontalStack=0;resizeParent=1;resizeParentMax=0;resizeLast=0;collapsible=0;marginBottom=0;html=1;whiteSpace=wrap;" vertex="1" parent="1">
          <mxGeometry x="1250" y="448" width="240" height="70" as="geometry" />
        </mxCell>
        <mxCell id="ugMAEvGEVpi-_gipkM1e-50" value="edge[6]: Edge" style="swimlane;fontStyle=1;align=center;verticalAlign=middle;childLayout=stackLayout;horizontal=1;startSize=29;horizontalStack=0;resizeParent=1;resizeParentMax=0;resizeLast=0;collapsible=0;marginBottom=0;html=1;whiteSpace=wrap;" vertex="1" parent="1">
          <mxGeometry x="1250" y="518" width="240" height="70" as="geometry" />
        </mxCell>
        <mxCell id="ugMAEvGEVpi-_gipkM1e-51" value="edge[7]: Edge" style="swimlane;fontStyle=1;align=center;verticalAlign=middle;childLayout=stackLayout;horizontal=1;startSize=29;horizontalStack=0;resizeParent=1;resizeParentMax=0;resizeLast=0;collapsible=0;marginBottom=0;html=1;whiteSpace=wrap;" vertex="1" parent="1">
          <mxGeometry x="1250" y="588" width="240" height="70" as="geometry" />
        </mxCell>
        <mxCell id="ugMAEvGEVpi-_gipkM1e-52" value="edge[8]: Edge" style="swimlane;fontStyle=1;align=center;verticalAlign=middle;childLayout=stackLayout;horizontal=1;startSize=29;horizontalStack=0;resizeParent=1;resizeParentMax=0;resizeLast=0;collapsible=0;marginBottom=0;html=1;whiteSpace=wrap;" vertex="1" parent="1">
          <mxGeometry x="1250" y="658" width="240" height="70" as="geometry" />
        </mxCell>
        <mxCell id="ugMAEvGEVpi-_gipkM1e-53" value="edge[9]: Edge" style="swimlane;fontStyle=1;align=center;verticalAlign=middle;childLayout=stackLayout;horizontal=1;startSize=29;horizontalStack=0;resizeParent=1;resizeParentMax=0;resizeLast=0;collapsible=0;marginBottom=0;html=1;whiteSpace=wrap;" vertex="1" parent="1">
          <mxGeometry x="1250" y="728" width="240" height="70" as="geometry" />
        </mxCell>
        <mxCell id="ugMAEvGEVpi-_gipkM1e-54" value="edge[10]: Edge" style="swimlane;fontStyle=1;align=center;verticalAlign=middle;childLayout=stackLayout;horizontal=1;startSize=29;horizontalStack=0;resizeParent=1;resizeParentMax=0;resizeLast=0;collapsible=0;marginBottom=0;html=1;whiteSpace=wrap;" vertex="1" parent="1">
          <mxGeometry x="1250" y="800" width="240" height="70" as="geometry" />
        </mxCell>
        <mxCell id="ugMAEvGEVpi-_gipkM1e-55" value="edge[11]: Edge" style="swimlane;fontStyle=1;align=center;verticalAlign=middle;childLayout=stackLayout;horizontal=1;startSize=29;horizontalStack=0;resizeParent=1;resizeParentMax=0;resizeLast=0;collapsible=0;marginBottom=0;html=1;whiteSpace=wrap;" vertex="1" parent="1">
          <mxGeometry x="1250" y="870" width="240" height="70" as="geometry" />
        </mxCell>
        <mxCell id="ugMAEvGEVpi-_gipkM1e-56" value="edge[12]: Edge" style="swimlane;fontStyle=1;align=center;verticalAlign=middle;childLayout=stackLayout;horizontal=1;startSize=29;horizontalStack=0;resizeParent=1;resizeParentMax=0;resizeLast=0;collapsible=0;marginBottom=0;html=1;whiteSpace=wrap;" vertex="1" parent="1">
          <mxGeometry x="1250" y="940" width="240" height="70" as="geometry" />
        </mxCell>
        <mxCell id="ugMAEvGEVpi-_gipkM1e-57" style="edgeStyle=orthogonalEdgeStyle;rounded=0;orthogonalLoop=1;jettySize=auto;html=1;exitX=1;exitY=0.5;exitDx=0;exitDy=0;entryX=-0.041;entryY=0.531;entryDx=0;entryDy=0;entryPerimeter=0;" edge="1" parent="1" source="ugMAEvGEVpi-_gipkM1e-9" target="ugMAEvGEVpi-_gipkM1e-12">
          <mxGeometry relative="1" as="geometry" />
        </mxCell>
        <mxCell id="ugMAEvGEVpi-_gipkM1e-58" style="edgeStyle=orthogonalEdgeStyle;rounded=0;orthogonalLoop=1;jettySize=auto;html=1;exitX=1;exitY=0.5;exitDx=0;exitDy=0;entryX=0;entryY=0.5;entryDx=0;entryDy=0;" edge="1" parent="1" source="ugMAEvGEVpi-_gipkM1e-9" target="ugMAEvGEVpi-_gipkM1e-14">
          <mxGeometry relative="1" as="geometry" />
        </mxCell>
        <mxCell id="ugMAEvGEVpi-_gipkM1e-59" style="edgeStyle=orthogonalEdgeStyle;rounded=0;orthogonalLoop=1;jettySize=auto;html=1;exitX=1;exitY=0.5;exitDx=0;exitDy=0;entryX=0;entryY=0.75;entryDx=0;entryDy=0;" edge="1" parent="1" source="ugMAEvGEVpi-_gipkM1e-12" target="ugMAEvGEVpi-_gipkM1e-35">
          <mxGeometry relative="1" as="geometry" />
        </mxCell>
        <mxCell id="ugMAEvGEVpi-_gipkM1e-60" style="edgeStyle=orthogonalEdgeStyle;rounded=0;orthogonalLoop=1;jettySize=auto;html=1;exitX=1;exitY=0.5;exitDx=0;exitDy=0;entryX=0;entryY=0.75;entryDx=0;entryDy=0;" edge="1" parent="1" source="ugMAEvGEVpi-_gipkM1e-14" target="ugMAEvGEVpi-_gipkM1e-38">
          <mxGeometry relative="1" as="geometry" />
        </mxCell>
        <mxCell id="ugMAEvGEVpi-_gipkM1e-61" style="edgeStyle=orthogonalEdgeStyle;rounded=0;orthogonalLoop=1;jettySize=auto;html=1;exitX=1;exitY=0.5;exitDx=0;exitDy=0;entryX=0;entryY=0.75;entryDx=0;entryDy=0;" edge="1" parent="1" source="ugMAEvGEVpi-_gipkM1e-16" target="ugMAEvGEVpi-_gipkM1e-39">
          <mxGeometry relative="1" as="geometry" />
        </mxCell>
        <mxCell id="ugMAEvGEVpi-_gipkM1e-62" style="edgeStyle=orthogonalEdgeStyle;rounded=0;orthogonalLoop=1;jettySize=auto;html=1;exitX=1;exitY=0.5;exitDx=0;exitDy=0;entryX=0;entryY=0.75;entryDx=0;entryDy=0;" edge="1" parent="1" source="ugMAEvGEVpi-_gipkM1e-18" target="ugMAEvGEVpi-_gipkM1e-48">
          <mxGeometry relative="1" as="geometry" />
        </mxCell>
        <mxCell id="ugMAEvGEVpi-_gipkM1e-64" style="edgeStyle=orthogonalEdgeStyle;rounded=0;orthogonalLoop=1;jettySize=auto;html=1;exitX=1;exitY=0.5;exitDx=0;exitDy=0;entryX=0;entryY=0.75;entryDx=0;entryDy=0;" edge="1" parent="1" source="ugMAEvGEVpi-_gipkM1e-28" target="ugMAEvGEVpi-_gipkM1e-50">
          <mxGeometry relative="1" as="geometry" />
        </mxCell>
        <mxCell id="ugMAEvGEVpi-_gipkM1e-65" style="edgeStyle=orthogonalEdgeStyle;rounded=0;orthogonalLoop=1;jettySize=auto;html=1;exitX=1;exitY=0.5;exitDx=0;exitDy=0;entryX=0;entryY=0.75;entryDx=0;entryDy=0;" edge="1" parent="1" source="ugMAEvGEVpi-_gipkM1e-26" target="ugMAEvGEVpi-_gipkM1e-51">
          <mxGeometry relative="1" as="geometry" />
        </mxCell>
        <mxCell id="ugMAEvGEVpi-_gipkM1e-66" style="edgeStyle=orthogonalEdgeStyle;rounded=0;orthogonalLoop=1;jettySize=auto;html=1;exitX=1;exitY=0.5;exitDx=0;exitDy=0;entryX=0;entryY=0.75;entryDx=0;entryDy=0;" edge="1" parent="1" source="ugMAEvGEVpi-_gipkM1e-24" target="ugMAEvGEVpi-_gipkM1e-52">
          <mxGeometry relative="1" as="geometry" />
        </mxCell>
        <mxCell id="ugMAEvGEVpi-_gipkM1e-67" style="edgeStyle=orthogonalEdgeStyle;rounded=0;orthogonalLoop=1;jettySize=auto;html=1;exitX=1;exitY=0.5;exitDx=0;exitDy=0;entryX=0;entryY=0.75;entryDx=0;entryDy=0;" edge="1" parent="1" source="ugMAEvGEVpi-_gipkM1e-22" target="ugMAEvGEVpi-_gipkM1e-53">
          <mxGeometry relative="1" as="geometry" />
        </mxCell>
        <mxCell id="ugMAEvGEVpi-_gipkM1e-68" style="edgeStyle=orthogonalEdgeStyle;rounded=0;orthogonalLoop=1;jettySize=auto;html=1;exitX=1;exitY=0.5;exitDx=0;exitDy=0;entryX=0;entryY=0.75;entryDx=0;entryDy=0;" edge="1" parent="1" source="ugMAEvGEVpi-_gipkM1e-34" target="ugMAEvGEVpi-_gipkM1e-54">
          <mxGeometry relative="1" as="geometry" />
        </mxCell>
        <mxCell id="ugMAEvGEVpi-_gipkM1e-69" style="edgeStyle=orthogonalEdgeStyle;rounded=0;orthogonalLoop=1;jettySize=auto;html=1;exitX=1;exitY=0.5;exitDx=0;exitDy=0;entryX=0;entryY=0.75;entryDx=0;entryDy=0;" edge="1" parent="1" source="ugMAEvGEVpi-_gipkM1e-32" target="ugMAEvGEVpi-_gipkM1e-55">
          <mxGeometry relative="1" as="geometry" />
        </mxCell>
        <mxCell id="ugMAEvGEVpi-_gipkM1e-70" style="edgeStyle=orthogonalEdgeStyle;rounded=0;orthogonalLoop=1;jettySize=auto;html=1;exitX=1;exitY=0.5;exitDx=0;exitDy=0;entryX=0;entryY=0.75;entryDx=0;entryDy=0;" edge="1" parent="1" source="ugMAEvGEVpi-_gipkM1e-30" target="ugMAEvGEVpi-_gipkM1e-56">
          <mxGeometry relative="1" as="geometry" />
        </mxCell>
        <mxCell id="ugMAEvGEVpi-_gipkM1e-71" value="" style="endArrow=classic;html=1;rounded=0;exitX=0.488;exitY=1.2;exitDx=0;exitDy=0;exitPerimeter=0;" edge="1" parent="1" source="ugMAEvGEVpi-_gipkM1e-6" target="ugMAEvGEVpi-_gipkM1e-8">
          <mxGeometry width="50" height="50" relative="1" as="geometry">
            <mxPoint x="1060" y="530" as="sourcePoint" />
            <mxPoint x="1110" y="480" as="targetPoint" />
          </mxGeometry>
        </mxCell>
        <mxCell id="ugMAEvGEVpi-_gipkM1e-72" style="edgeStyle=orthogonalEdgeStyle;rounded=0;orthogonalLoop=1;jettySize=auto;html=1;exitX=1;exitY=0.5;exitDx=0;exitDy=0;entryX=0;entryY=0.5;entryDx=0;entryDy=0;" edge="1" parent="1" source="ugMAEvGEVpi-_gipkM1e-9" target="ugMAEvGEVpi-_gipkM1e-16">
          <mxGeometry relative="1" as="geometry" />
        </mxCell>
        <mxCell id="ugMAEvGEVpi-_gipkM1e-73" style="edgeStyle=orthogonalEdgeStyle;rounded=0;orthogonalLoop=1;jettySize=auto;html=1;exitX=1;exitY=0.5;exitDx=0;exitDy=0;entryX=0;entryY=0.5;entryDx=0;entryDy=0;" edge="1" parent="1" source="ugMAEvGEVpi-_gipkM1e-9" target="ugMAEvGEVpi-_gipkM1e-18">
          <mxGeometry relative="1" as="geometry" />
        </mxCell>
        <mxCell id="ugMAEvGEVpi-_gipkM1e-74" style="edgeStyle=orthogonalEdgeStyle;rounded=0;orthogonalLoop=1;jettySize=auto;html=1;exitX=1;exitY=0.5;exitDx=0;exitDy=0;entryX=-0.004;entryY=0.366;entryDx=0;entryDy=0;entryPerimeter=0;" edge="1" parent="1" source="ugMAEvGEVpi-_gipkM1e-9" target="ugMAEvGEVpi-_gipkM1e-20">
          <mxGeometry relative="1" as="geometry" />
        </mxCell>
        <mxCell id="ugMAEvGEVpi-_gipkM1e-75" style="edgeStyle=orthogonalEdgeStyle;rounded=0;orthogonalLoop=1;jettySize=auto;html=1;exitX=1;exitY=0.5;exitDx=0;exitDy=0;entryX=0;entryY=0.5;entryDx=0;entryDy=0;" edge="1" parent="1" source="ugMAEvGEVpi-_gipkM1e-9" target="ugMAEvGEVpi-_gipkM1e-28">
          <mxGeometry relative="1" as="geometry" />
        </mxCell>
        <mxCell id="ugMAEvGEVpi-_gipkM1e-76" style="edgeStyle=orthogonalEdgeStyle;rounded=0;orthogonalLoop=1;jettySize=auto;html=1;exitX=1;exitY=0.5;exitDx=0;exitDy=0;entryX=0;entryY=0.5;entryDx=0;entryDy=0;" edge="1" parent="1" source="ugMAEvGEVpi-_gipkM1e-9" target="ugMAEvGEVpi-_gipkM1e-26">
          <mxGeometry relative="1" as="geometry" />
        </mxCell>
        <mxCell id="ugMAEvGEVpi-_gipkM1e-77" style="edgeStyle=orthogonalEdgeStyle;rounded=0;orthogonalLoop=1;jettySize=auto;html=1;exitX=1;exitY=0.5;exitDx=0;exitDy=0;entryX=0;entryY=0.5;entryDx=0;entryDy=0;" edge="1" parent="1" source="ugMAEvGEVpi-_gipkM1e-9" target="ugMAEvGEVpi-_gipkM1e-24">
          <mxGeometry relative="1" as="geometry" />
        </mxCell>
        <mxCell id="ugMAEvGEVpi-_gipkM1e-78" style="edgeStyle=orthogonalEdgeStyle;rounded=0;orthogonalLoop=1;jettySize=auto;html=1;exitX=1;exitY=0.5;exitDx=0;exitDy=0;entryX=-0.017;entryY=0.366;entryDx=0;entryDy=0;entryPerimeter=0;" edge="1" parent="1" source="ugMAEvGEVpi-_gipkM1e-9" target="ugMAEvGEVpi-_gipkM1e-22">
          <mxGeometry relative="1" as="geometry" />
        </mxCell>
        <mxCell id="ugMAEvGEVpi-_gipkM1e-79" style="edgeStyle=orthogonalEdgeStyle;rounded=0;orthogonalLoop=1;jettySize=auto;html=1;exitX=1;exitY=0.5;exitDx=0;exitDy=0;entryX=0;entryY=0.5;entryDx=0;entryDy=0;" edge="1" parent="1" source="ugMAEvGEVpi-_gipkM1e-9" target="ugMAEvGEVpi-_gipkM1e-34">
          <mxGeometry relative="1" as="geometry" />
        </mxCell>
        <mxCell id="ugMAEvGEVpi-_gipkM1e-80" style="edgeStyle=orthogonalEdgeStyle;rounded=0;orthogonalLoop=1;jettySize=auto;html=1;exitX=1;exitY=0.5;exitDx=0;exitDy=0;entryX=0;entryY=0.5;entryDx=0;entryDy=0;" edge="1" parent="1" source="ugMAEvGEVpi-_gipkM1e-9" target="ugMAEvGEVpi-_gipkM1e-32">
          <mxGeometry relative="1" as="geometry" />
        </mxCell>
        <mxCell id="ugMAEvGEVpi-_gipkM1e-81" style="edgeStyle=orthogonalEdgeStyle;rounded=0;orthogonalLoop=1;jettySize=auto;html=1;exitX=1;exitY=0.5;exitDx=0;exitDy=0;entryX=0;entryY=0.5;entryDx=0;entryDy=0;" edge="1" parent="1" source="ugMAEvGEVpi-_gipkM1e-9" target="ugMAEvGEVpi-_gipkM1e-30">
          <mxGeometry relative="1" as="geometry" />
        </mxCell>
      </root>
    </mxGraphModel>
  </diagram>
</mxfile>
